<svg id="Capa_1" enable-background="new 0 0 450.823 450.823" height="512" viewBox="0 0 450.823 450.823" width="512" xmlns="http://www.w3.org/2000/svg"><path d="m394.47 422.647v-380.382c0-23.306-18.958-42.265-42.264-42.265h-253.588c-23.306 0-42.265 18.959-42.265 42.265v380.382h-28.177v28.176h394.47v-28.176zm-140.882 0h-56.353v-56.353h56.353zm28.177 0v-84.529h-112.706v84.529h-84.53v-380.382c0-7.773 6.315-14.088 14.088-14.088h253.588c7.773 0 14.088 6.315 14.088 14.088v380.382z"/><path id="path-1_9_" d="m140.882 84.529h56.353v56.353h-56.353z" transform="translate(5 3)"/><path id="path-1_8_" d="m253.588 84.529h56.353v56.353h-56.353z" transform="translate(9 3)"/><path id="path-1_7_" d="m140.882 169.059h56.353v56.353h-56.353z" transform="translate(5 6)"/><path id="path-1_6_" d="m253.588 169.059h56.353v56.353h-56.353z" transform="translate(9 6)"/><path id="path-1_4_" d="m140.882 253.588h56.353v56.353h-56.353z" transform="translate(5 9)"/><path id="path-1_5_" d="m253.588 253.588h56.353v56.353h-56.353z" transform="translate(9 9)"/></svg>